<svg width="20" height="18" viewBox="0 0 20 18" fill="none" xmlns="http://www.w3.org/2000/svg">
<path fill-rule="evenodd" clip-rule="evenodd" d="M2.16841 6.41788C2.16841 4.71575 2.99352 3.08334 4.46223 1.87975C5.93094 0.676167 7.92293 0 10 0C12.0771 0 14.0691 0.676167 15.5378 1.87975C17.0065 3.08334 17.8316 4.71575 17.8316 6.41788V9.86886L19.87 13.2098C19.9639 13.3636 20.0082 13.5345 19.9988 13.7062C19.9893 13.878 19.9265 14.0449 19.8162 14.1912C19.7059 14.3374 19.5518 14.4581 19.3685 14.5418C19.1853 14.6255 18.9789 14.6695 18.7691 14.6694H14.3342C14.0854 15.4563 13.5247 16.1532 12.7402 16.6507C11.9558 17.1481 10.9919 17.4181 10 17.4181C9.00808 17.4181 8.04423 17.1481 7.25977 16.6507C6.47531 16.1532 5.91464 15.4563 5.66578 14.6694H1.23086C1.02106 14.6695 0.814736 14.6255 0.631483 14.5418C0.44823 14.4581 0.294133 14.3374 0.183827 14.1912C0.0735219 14.0449 0.0106708 13.878 0.00124331 13.7062C-0.00818416 13.5345 0.0361251 13.3636 0.129963 13.2098L2.16841 9.86886V6.41788ZM8.06224 14.6694C8.25864 14.9482 8.54111 15.1796 8.88125 15.3405C9.2214 15.5015 9.60724 15.5862 10 15.5862C10.3928 15.5862 10.7786 15.5015 11.1187 15.3405C11.4589 15.1796 11.7414 14.9482 11.9378 14.6694H8.06224ZM10 1.83368C8.51638 1.83368 7.09353 2.31666 6.04445 3.17636C4.99537 4.03606 4.40601 5.20207 4.40601 6.41788V9.86886C4.40599 10.1534 4.32517 10.434 4.16994 10.6885L2.86095 12.8358H17.1402L15.8312 10.6885C15.6756 10.4341 15.5944 10.1535 15.594 9.86886V6.41788C15.594 5.20207 15.0046 4.03606 13.9555 3.17636C12.9065 2.31666 11.4836 1.83368 10 1.83368Z" fill="#A5B8FF"/>
</svg>
