<svg width="20" height="20" viewBox="0 0 20 20" fill="none" xmlns="http://www.w3.org/2000/svg">
<path d="M10.1984 20C14.7276 20 18.647 17.0921 19.9567 12.7651C20.0095 12.5916 20.0141 12.4069 19.97 12.231C19.926 12.055 19.8349 11.8943 19.7066 11.766C19.5782 11.6378 19.4174 11.5468 19.2414 11.5027C19.0653 11.4587 18.8806 11.4633 18.7069 11.516C17.9271 11.7458 17.1272 11.8658 16.3273 11.8658C11.8081 11.8658 8.12871 8.18836 8.12871 3.67156C8.12871 2.87212 8.24868 2.07269 8.47865 1.29324C8.58863 0.943489 8.48864 0.553765 8.22869 0.293949C7.96873 0.0341332 7.5888 -0.065796 7.22886 0.0441261C5.13284 0.676723 3.29711 1.96861 1.99468 3.72765C0.692246 5.48669 -0.00730716 7.61892 5.75593e-05 9.80721C5.75593e-05 15.4232 4.5693 20 10.1984 20ZM6.17903 2.66227C6.14904 3.00203 6.12904 3.34179 6.12904 3.68155C6.12904 9.29758 10.6983 13.8743 16.3273 13.8743C16.6673 13.8743 17.0072 13.8544 17.3472 13.8244C15.9274 16.3826 13.2279 18.0014 10.1984 18.0014C5.67911 18.0014 1.99972 14.324 1.99972 9.80721C1.99396 8.35167 2.37859 6.92118 3.11361 5.6646C3.84862 4.40803 4.90715 3.37129 6.17903 2.66227Z" fill="#A5B8FF"/>
</svg>
