<svg width="34" height="34" viewBox="0 0 34 34" fill="none" xmlns="http://www.w3.org/2000/svg">
<rect width="34" height="34" rx="5" fill="black"/>
<path d="M13.2506 12.8409L6.87058 13.7659L6.75758 13.7889C6.58652 13.8343 6.43057 13.9243 6.30567 14.0497C6.18077 14.1751 6.09138 14.3314 6.04664 14.5026C6.0019 14.6739 6.00341 14.8539 6.05101 15.0244C6.09861 15.1948 6.19059 15.3496 6.31758 15.4729L10.9396 19.9719L9.84958 26.3269L9.83658 26.4369C9.82611 26.6138 9.86284 26.7903 9.94303 26.9484C10.0232 27.1065 10.144 27.2404 10.2929 27.3364C10.4419 27.4325 10.6137 27.4872 10.7907 27.495C10.9678 27.5028 11.1437 27.4634 11.3006 27.3809L17.0066 24.3809L22.6996 27.3809L22.7996 27.4269C22.9646 27.4919 23.144 27.5118 23.3193 27.4847C23.4946 27.4575 23.6596 27.3841 23.7972 27.2722C23.9348 27.1602 24.0401 27.0136 24.1024 26.8475C24.1647 26.6814 24.1817 26.5017 24.1516 26.3269L23.0606 19.9719L27.6846 15.4719L27.7626 15.3869C27.874 15.2497 27.9471 15.0854 27.9743 14.9107C28.0015 14.736 27.982 14.5573 27.9177 14.3926C27.8533 14.228 27.7465 14.0833 27.6081 13.9734C27.4696 13.8635 27.3045 13.7922 27.1296 13.7669L20.7496 12.8409L17.8976 7.0609C17.8151 6.89343 17.6873 6.75241 17.5288 6.6538C17.3702 6.55519 17.1873 6.50293 17.0006 6.50293C16.8139 6.50293 16.6309 6.55519 16.4724 6.6538C16.3139 6.75241 16.1861 6.89343 16.1036 7.0609L13.2506 12.8409Z" fill="white"/>
</svg>
